<svg width="250" height="250" viewBox="0 0 250 250" fill="none" xmlns="http://www.w3.org/2000/svg">
<rect width="250" height="250" rx="60" fill="url(#paint0_linear_671_2625)"/>
<path d="M153.12 125.007L191.454 146.902C192.53 147.512 193.426 148.397 194.049 149.466C194.672 150.535 195 151.75 195 152.988C195 154.225 194.672 155.44 194.049 156.509C193.426 157.578 192.53 158.463 191.454 159.073L131.995 193.14C129.868 194.368 127.456 195.014 125 195.014C122.544 195.014 120.132 194.368 118.005 193.14L58.5462 159.073C57.4696 158.463 56.5742 157.578 55.9512 156.509C55.3282 155.44 55 154.225 55 152.988C55 151.75 55.3282 150.535 55.9512 149.466C56.5742 148.397 57.4696 147.512 58.5462 146.902L96.8795 125.007M131.995 137.179C129.868 138.406 127.456 139.053 125 139.053C122.544 139.053 120.132 138.406 118.005 137.179L58.5462 103.112C57.4696 102.502 56.5742 101.617 55.9512 100.548C55.3282 99.4791 55 98.2638 55 97.0264C55 95.789 55.3282 94.5738 55.9512 93.5047C56.5742 92.4355 57.4696 91.5508 58.5462 90.9407L118.005 56.8743C120.132 55.6464 122.544 55 125 55C127.456 55 129.868 55.6464 131.995 56.8743L191.454 90.9407C192.53 91.5508 193.426 92.4355 194.049 93.5047C194.672 94.5738 195 95.789 195 97.0264C195 98.2638 194.672 99.4791 194.049 100.548C193.426 101.617 192.53 102.502 191.454 103.112L131.995 137.179Z" stroke="white" stroke-width="15" stroke-linecap="round" stroke-linejoin="round"/>
<defs>
<linearGradient id="paint0_linear_671_2625" x1="271.5" y1="234.5" x2="101.086" y2="-20.0353" gradientUnits="userSpaceOnUse">
<stop stop-color="#3300FF"/>
<stop offset="1" stop-color="#009EE5"/>
</linearGradient>
</defs>
</svg>
